<svg width="18" height="18" viewBox="0 0 18 18" fill="none" xmlns="http://www.w3.org/2000/svg">
<path d="M5 13C2.2259 10.2259 1.50597 13.0131 1.14631 15.7587C1.06307 16.3941 1.60594 16.9369 2.24134 16.8537C4.98691 16.494 7.7741 15.7741 5 13Z" fill="white"/>
<path d="M7.7198 15.3188L7.23486 12.4091C7.09436 11.5662 6.43381 10.9056 5.59087 10.7651L2.44875 10.2415C1.75312 10.1255 1.39282 9.3453 1.75566 8.74057L3.7087 5.4855C3.88942 5.1843 4.21493 5 4.56619 5H7.58579C7.851 5 8.10278 4.8945 8.29737 4.71428C10.4488 2.72171 14.9744 -0.0255578 16.5 1.5C18.0089 3.00894 15.3376 6.85999 13.3511 8.69145C13.1329 8.89261 13 9.1716 13 9.46838V12.5194C13 12.8232 12.8619 13.1105 12.6247 13.3002L9.33089 15.9353C8.73463 16.4123 7.84534 16.072 7.7198 15.3188Z" fill="white"/>
</svg>
